<svg xmlns="http://www.w3.org/2000/svg" class="icon" viewBox="0 0 1024 1024" id="dashboard_components/overview/img/cardMember.svg"><path d="M676.978 516.21l-175.616 192a32.085 32.085 0 01-23.666 10.41h-.17a32.085 32.085 0 01-23.666-10.695l-85.732-96.028a32.028 32.028 0 1147.787-42.61l62.065 69.575 151.723-165.83a32.028 32.028 0 0147.218 43.178m133.632-312.32h-63.886v95.687c.113 35.385-28.445 64.17-63.83 64.341H362.553a64.17 64.17 0 01-63.886-64.284v-63.431l-.114-32.37h-64.17c-35.158.114-63.716 28.615-63.716 63.772v576.512c0 35.215 28.558 63.716 63.715 63.716h576.626a63.83 63.83 0 0063.659-63.716V267.662c0-35.1-28.786-63.715-64.114-63.715m-131.3-11.776a42.553 42.553 0 00-36.75-21.504H406.528a42.61 42.61 0 00-36.864 21.39 43.122 43.122 0 00-6.03 21.731v42.496c0 23.894 19.171 43.236 42.894 43.236h235.918c23.666 0 42.838-19.342 42.838-43.236v-42.496a42.667 42.667 0 00-6.03-21.674"></path></svg>
