<svg xmlns="http://www.w3.org/2000/svg" class="icon" viewBox="0 0 1024 1024" id="dashboard_components/overview/img/unit.svg"><path d="M702.578 341.675c38.4-38.4 79.986-95.972 79.986-156.786 0-35.214-9.558-64-31.972-86.414-41.643-41.586-115.2-41.586-198.428-41.586h-60.815c-79.985 0-143.929 0-185.571 38.4-22.414 22.414-32.029 51.2-32.029 89.6 0 64 41.643 118.386 76.8 156.786-140.743 73.614-236.771 220.785-236.771 371.2 0 278.414 281.6 278.414 416.028 278.414 134.372 0 415.972 0 415.972-278.414 0-153.6-99.214-297.586-243.2-371.2zm-76.8 262.485c19.228 0 32.028 12.8 32.028 31.972 0 19.228-12.857 32.028-32.028 32.028h-64v31.972h64c19.228 0 32.028 12.8 32.028 32.028 0 19.172-12.857 31.972-32.028 31.972h-64v67.242c0 19.172-12.8 31.972-32.029 31.972-19.171 0-31.971-12.8-31.971-32.029v-67.129h-64c-19.229 0-32.029-12.856-32.029-32.028 0-19.228 12.8-32.028 32.029-32.028h64V668.16h-64c-19.229 0-32.029-12.8-32.029-32.028 0-19.172 12.8-31.972 32.029-31.972h64v-19.228l-89.6-86.472a30.948 30.948 0 010-44.771 30.948 30.948 0 0144.828 0l79.986 76.8 79.986-76.8a30.948 30.948 0 0144.771 0 30.948 30.948 0 010 44.771l-95.971 92.843v12.8h64z"></path></svg>
