<svg xmlns="http://www.w3.org/2000/svg" class="icon" viewBox="0 0 1024 1024" id="dashboard_components/overview/img/member.svg"><path d="M541.582 608.882c1.422-1.138 2.39-2.048 3.584-3.072a205.084 205.084 0 0082.148-147.001c.569-6.429 1.365-12.8 1.365-19.456V317.895c0-112.526-87.78-204.117-195.64-204.117-107.805 0-195.585 91.59-195.585 204.117v121.458c0 69.746 33.735 131.413 84.992 168.22-62.862 14.905-116.736 27.023-167.708 62.749-29.469 20.594-69.12 46.876-84.765 98.816-15.587 51.94-15.587 102.684-8.533 137.67 6.03 29.754 27.705 40.733 57.97 40.733h394.41a34.532 34.532 0 0022.756-9.159 37.262 37.262 0 0012.857-27.875c0-.967-.569-2.447-.853-3.698a80.782 80.782 0 00-10.354-22.699c-28.672-66.73-61.668-183.182 3.356-275.228zm245.703 160.256v49.55a25.43 25.43 0 01-24.974 25.998 25.43 25.43 0 01-24.917-25.998v-49.55h-47.047a25.43 25.43 0 01-24.918-25.998c0-14.336 11.15-25.942 24.918-25.942h47.047v-46.876c0-14.393 11.15-25.998 24.917-25.998 13.824 0 24.974 11.605 24.974 25.998v46.876h45.511c13.824 0 24.975 11.606 24.975 25.942a25.43 25.43 0 01-24.918 25.998h-45.568zm-24.974-247.24c-117.76 0-213.675 99.784-213.675 222.607 0 122.766 95.858 222.606 213.675 222.606 17.92 0 35.271-2.617 51.883-6.883 92.842-24.292 161.849-111.616 161.849-215.723 0-104.107-69.007-191.488-161.85-215.723a204.8 204.8 0 00-51.882-6.883z"></path></svg>
