<svg xmlns="http://www.w3.org/2000/svg" class="icon" viewBox="0 0 1024 1024" id="dashboard_components/overview/img/pay.svg"><path d="M504.889 56.889a448.057 448.057 0 10.057 896.057 448.057 448.057 0 00-.057-896.057zM633.799 578.9a31.289 31.289 0 0131.687 31.687 31.289 31.289 0 01-31.687 31.688h-97.11v60.131c0 17.465-14.221 31.687-31.686 31.687a31.289 31.289 0 01-31.687-31.687v-60.131h-97.11a31.289 31.289 0 01-31.744-31.688 31.289 31.289 0 0131.744-31.687h97.11v-46.023h-97.11a31.289 31.289 0 01-31.744-31.687 31.289 31.289 0 0131.744-31.687h93.582l-98.986-98.987a30.663 30.663 0 01-9.5-22.3c0-8.932 3.47-17.124 9.614-22.414l.056-.114.114-.114a30.72 30.72 0 0121.902-9.102c8.875 0 17.067 3.527 22.415 9.5l.113.228 89.373 88.69 88.917-89.714a30.265 30.265 0 0122.3-9.5c8.99 0 17.067 3.527 22.358 9.614l.114.113.114.057a32.028 32.028 0 019.102 22.927 29.582 29.582 0 01-9.5 21.276l-.228.228-98.19 99.498h93.866a31.289 31.289 0 0131.63 31.687 31.289 31.289 0 01-31.687 31.687h-97.109v46.024h97.223v.113z"></path></svg>
