<svg xmlns="http://www.w3.org/2000/svg" class="icon" viewBox="0 0 1024 1024" id="dashboard_images/manager.svg"><path d="M922.647 465.455C922.647 238.662 738.793 54.83 512 54.83S101.353 238.685 101.353 465.455a34.91 34.91 0 0069.818 0c0-188.23 152.6-340.806 340.829-340.806s340.83 152.576 340.83 340.806a34.91 34.91 0 0069.817 0z" fill="#6A657A"></path><path d="M500.364 876.823H199.052a50.27 50.27 0 01-50.223-50.315v-150.97a25.135 25.135 0 10-50.222 0v150.97a100.538 100.538 0 00100.445 100.63h301.312a25.135 25.135 0 000-50.315z" fill="#C9C8CF"></path><path d="M136.262 398.801h.023q112.99 0 112.99 112.99v151.412q0 112.989-112.99 112.989h-.023q-112.99 0-112.99-112.99V511.792q0-112.99 112.99-112.99zM625.92 902.004a75.473 75.473 0 01-75.497 75.45H400.081a75.473 75.473 0 010-150.946h150.342a75.473 75.473 0 0175.497 75.473zM887.715 398.801h.023q112.99 0 112.99 112.99v151.412q0 112.989-112.99 112.989h-.023q-112.99 0-112.99-112.99V511.792q0-112.99 112.99-112.99z" fill="#6A657A"></path></svg>
