<svg xmlns="http://www.w3.org/2000/svg" class="icon" viewBox="0 0 1024 1024" id="dashboard_components/feature/img/icon-bill_new.svg"><path d="M0 512a512 512 0 101024 0A512 512 0 100 512z" fill="#EC567B"></path><path d="M411.79 260.551v30.692c0 16.953 13.767 30.72 30.72 30.72h122.823a30.72 30.72 0 0030.72-30.72v-30.72h61.412c16.953 0 30.72 13.738 30.72 30.72v399.189a30.72 30.72 0 01-30.72 30.72H350.379a30.72 30.72 0 01-30.72-30.72v-399.19c0-16.98 13.767-30.72 30.72-30.72h61.44zm92.445 183.154l-24.52-24.52a17.55 17.55 0 10-24.803 24.833l17.977 17.977H460.06a17.55 17.55 0 000 35.1h26.312v17.55H460.06a17.55 17.55 0 100 35.1h26.312v17.551a17.55 17.55 0 1035.1 0v-17.55h26.311a17.55 17.55 0 000-35.1h-26.311v-17.55h26.311a17.55 17.55 0 000-35.101h-12.231l18.005-17.977a17.55 17.55 0 10-24.832-24.832l-24.49 24.519zM457.87 260.523h92.103a15.36 15.36 0 010 30.72H457.87a15.36 15.36 0 010-30.72z" fill="#FFF"></path></svg>
