<svg xmlns="http://www.w3.org/2000/svg" class="icon" viewBox="0 0 1024 1024" id="dashboard_images/service.svg"><path d="M23.273000000000025 512a488.727 488.727 0 10977.454 0 488.727 488.727 0 10-977.454 0z" fill="#6A657A"></path><path d="M401.222 260.073C229.469 293.469 172.218 504.855 308.829 601.6c7.517 5.236 7.517 4.655-3.724 41.193l-9.658 31.302 34.63-20.248 34.56-20.177 18.386 4.887c19.246 5.236 43.869 8.89 60.276 8.89h9.821l-3.421-14.196c-26.95-107.986 66.141-215.04 187.229-215.04h16.407l-3.374-12.8C623.36 304.128 511.255 238.615 401.22 260.073zm-15.011 94.603c18.222 13.382 19.27 42.357 1.745 54.808-28.276 20.2-61.486-15.36-42.403-45.661 8.379-13.615 28.51-18.037 40.728-9.147h-.07zm146.222 0c29.952 21.947 7.564 72.681-26.018 58.648-24.25-10.054-27.113-46.43-4.469-59.462 8.89-5.237 22.854-4.818 30.487.814zm66.142 80.059c-85.062 16.872-144.059 87.156-140.684 168.029 4.492 108.218 120.902 182.807 232.727 149.41l13.22-3.886 27.81 16.29c15.29 9.194 28.16 15.757 28.51 15.012.348-1-2.677-12.637-6.587-26.066-8.89-29.905-9.123-27.764 2.862-37.073 134.4-105.123 16.408-316.09-157.858-281.716zM595.2 521.89c7.517 5.422 11.404 19.037 8.215 28.974-6.749 21.132-35.84 22.691-43.636 2.328-8.96-23.506 15.64-45.266 35.49-31.302h-.069zm119.11 2.327c11.8 12.218 9.89 33.047-3.91 40.797-21.062 11.637-43.17-11.636-32.28-33.978 7.145-14.382 25.53-17.873 36.19-6.819z" fill="#E5E4EA"></path></svg>
