<svg t="1599664269156" class="moduleMenuSVG icon_form" viewBox="0 0 1065 1024" version="1.1" xmlns="http://www.w3.org/2000/svg" p-id="17336" width="128" height="128"><path d="M231.138 1021.023c-3.34-0.619-6.703-1.13-10.02-1.87-22.86-5.09-39.132-24.51-39.53-47.115-0.435-24.606 14.466-44.74 37.739-50.634a50.188 50.188 0 0 1 12.18-1.53c198.883-0.06 397.759-0.102 596.641 0.011 26.475 0.018 49.95 19.695 49.992 50.153 0.041 31.565-24.309 48.99-46.765 50.104-3.084 0.155-6.174 0.268-9.258 0.268-136.543 0.036-273.08 0.054-409.618 0.095-2.381 0-4.762 0.34-7.144 0.518H231.132zM959.774 367.39c-23.927 19.587-46.55 38.191-69.257 56.695-37.442 30.5-75.032 60.803-112.36 91.434-29.172 23.938-66.715 15.27-82.099-19.314a927.8 927.8 0 0 1-6.775-15.604c-27.958-65.958-55.903-131.917-83.849-197.876-18.682-44.097-37.364-88.2-56.052-132.292-6.31-14.884-12.651-29.75-19.087-44.89-0.56 0.798-0.929 1.173-1.131 1.62a102518.31 102518.31 0 0 0-36.81 82.616c-21.219 47.688-42.42 95.387-63.65 143.063a91909.85 91909.85 0 0 1-43.996 98.66c-10.251 22.97-20.158 46.11-30.898 68.847-15.473 32.774-55.296 36.495-79.598 15.747-17.718-15.122-35.626-30.012-53.45-45.008-30.506-25.66-61.006-51.331-91.512-76.985-7.781-6.543-15.592-13.038-24.17-20.212 0.428 1.846 0.553 2.661 0.797 3.43 9.436 29.677 18.866 59.355 28.32 89.028 26.6 83.462 53.213 166.912 79.795 250.374 1.072 3.387 1.876 5.864 6.686 5.864 207.479-0.167 414.946-0.155 622.42-0.048 3.63 0 5.036-1.185 6.06-4.47a12210.36 12210.36 0 0 1 25.273-80.808c26.344-83.14 52.753-166.263 79.121-249.397 1.995-6.305 3.846-12.651 6.222-20.468m-669.506 30.053c6.936-15.539 13.616-30.458 20.266-45.395 15.914-35.721 31.833-71.454 47.717-107.193 24.707-55.588 49.319-111.223 74.133-166.757 5.977-13.384 11.52-27.035 21.075-38.507 18.176-21.838 41.252-34.114 69.472-36.263 32.666-2.512 60.112 8.513 82.241 32.863 10.032 11.044 15.926 24.481 21.647 38.025 18.563 43.96 37.185 87.897 55.766 131.852 23.207 54.891 46.396 109.788 69.597 164.68 3.69 8.715 7.441 17.396 11.43 26.743 8.603-6.889 16.89-13.48 25.124-20.135 37.447-30.232 74.621-60.797 112.354-90.648 59.208-46.842 143.069-11.949 158.863 54.177 4.971 20.801 2.84 41.02-3.697 61.273-26.38 81.736-52.415 163.584-78.538 245.403-14.967 46.884-29.827 93.797-44.8 140.68-7.436 23.297-25.886 36.317-51.32 36.317-233.364 0-466.73 0.006-700.088-0.06-4.269 0-8.609-0.565-12.782-1.482-19.48-4.263-31.637-16.789-37.668-35.423a64289.795 64289.795 0 0 1-68.298-212.307C44.21 517.269 25.702 459.234 7.585 401.075-10.841 341.92 27.91 279.993 88.57 271.408c30.244-4.287 56.653 4.804 79.938 24.361 29.332 24.642 58.88 49.01 88.302 73.538 11.002 9.168 21.909 18.432 33.452 28.148" p-id="17337" fill="#2c2c2c"></path></svg>
