<svg t="1599664115902" class="moduleMenuSVG icon_form" viewBox="0 0 1024 1024" version="1.1" xmlns="http://www.w3.org/2000/svg" p-id="14261" width="128" height="128"><path d="M158.98273 70.620939C120.001245 70.620939 88.274989 102.115722 88.274989 141.082741v812.455458c0 39.003186 31.704556 70.461801 70.707741 70.461801h706.028553c38.981485 0 70.707741-31.494783 70.707742-70.461801V141.082741c0-39.003186-31.704556-70.461801-70.707742-70.461802h-70.483502v70.548604H547.256842l247.242005 0.057868-0.014467 17.729379c0 29.223455-23.574069 52.913261-52.906028 52.913261H282.422895c-29.216222 0-52.906028-23.805542-52.906028-52.913261l-0.137437-17.852349h0.057868V70.628173H158.989964z m635.494416-0.028934V52.913261C794.477146 23.805542 770.78734 0 741.571119 0H282.415661c-29.331958 0-52.906028 23.689806-52.906027 52.913261v17.678744h564.960279z m70.534137 70.64264c0.12297 0 0.086802 812.29632 0.086802 812.29632 0-0.151904-706.115355-0.159138-706.115355-0.159138-0.12297 0-0.086802-812.29632-0.086802-812.29632l70.534137 0.014467v0.072335h313.030947l322.543038 0.072336zM723.856207 441.375444c19.501593 0 35.306853-15.812493 35.306853-35.306853 0-19.501593-15.812493-35.314086-35.306853-35.314086H300.130573c-19.501593 0-35.306853 15.812493-35.306853 35.314086s15.812493 35.306853 35.306853 35.306853h423.725634zM300.130573 547.303236c-19.501593 0-35.306853 15.812493-35.306853 35.306853 0 19.501593 15.812493 35.306853 35.306853 35.306853h423.725634c19.501593 0 35.306853-15.812493 35.306853-35.306853 0-19.501593-15.812493-35.306853-35.306853-35.306853H300.130573z m0 176.548731c-19.501593 0-35.306853 15.80526-35.306853 35.306853s15.812493 35.306853 35.306853 35.306853H582.614329c19.501593 0 35.306853-15.812493 35.306853-35.306853 0-19.501593-15.812493-35.306853-35.306853-35.306853H300.130573z" p-id="14262" fill="#2c2c2c"></path></svg>
